<?xml version="1.0" encoding="UTF-8" standalone="no"?>
<svg
   xmlns:dc="http://purl.org/dc/elements/1.1/"
   xmlns:cc="http://creativecommons.org/ns#"
   xmlns:rdf="http://www.w3.org/1999/02/22-rdf-syntax-ns#"
   xmlns:svg="http://www.w3.org/2000/svg"
   xmlns="http://www.w3.org/2000/svg"
   width="512"
   height="512"
   viewBox="0 0 135.46667 135.46667"
   version="1.1"
   id="svg8">
  <defs
     id="defs2" />
  <metadata
     id="metadata5">
    <rdf:RDF>
      <cc:Work
         rdf:about="">
        <dc:format>image/svg+xml</dc:format>
        <dc:type
           rdf:resource="http://purl.org/dc/dcmitype/StillImage" />
        <dc:title></dc:title>
      </cc:Work>
    </rdf:RDF>
  </metadata>
  <g
     id="layer1">
    <path
       id="path10"
       style="fill:#1c2224;stroke-width:7.3489"
       d="M 76.018264,-2.8094254e-6 A 67.733386,67.733386 0 0 0 8.2849287,67.733333 67.733386,67.733386 0 0 0 76.018264,135.46667 67.733386,67.733386 0 0 0 127.18174,112.11914 L 108.13179,101.12066 88.875796,90.003286 a 25.715161,25.715161 0 0 1 -12.857532,3.445107 25.715161,25.715161 0 0 1 -25.71506,-25.71506 25.715161,25.715161 0 0 1 25.71506,-25.715064 25.715161,25.715161 0 0 1 12.857532,3.445107 L 108.13179,34.346 127.18174,23.347522 A 67.733386,67.733386 0 0 0 76.018264,-2.8094254e-6 Z" />
    <path
       id="path12"
       style="fill:#0088aa;stroke-width:12.9623"
       d="M 75.816833,19.909345 A 47.824269,47.824269 0 0 0 28.194276,67.733333 47.824269,47.824269 0 0 0 76.018264,115.5579 47.824269,47.824269 0 0 0 109.48178,101.89984 l -1.34999,-0.77918 -19.255994,-11.117374 a 25.715161,25.715161 0 0 1 -12.857532,3.445107 25.715161,25.715161 0 0 1 -25.71506,-25.71506 25.715161,25.715161 0 0 1 25.71506,-25.715064 25.715161,25.715161 0 0 1 12.857532,3.445107 L 108.13179,34.346 l 1.34999,-0.779175 a 47.824269,47.824269 0 0 0 -33.463516,-13.65748 47.824269,47.824269 0 0 0 -0.201431,0 z" />
  </g>
</svg>
